<?xml version="1.0" standalone="no"?>
<!DOCTYPE svg PUBLIC "-//W3C//DTD SVG 20010904//EN"
 "http://www.w3.org/TR/2001/REC-SVG-20010904/DTD/svg10.dtd">
<svg version="1.0" xmlns="http://www.w3.org/2000/svg"
 width="128.000000pt" height="128.000000pt" viewBox="0 0 128.000000 128.000000"
 preserveAspectRatio="xMidYMid meet">
<metadata>
Created by potrace 1.14, written by Peter Selinger 2001-2017
</metadata>
<g transform="translate(0.000000,128.000000) scale(0.100000,-0.100000)"
fill="#000000" stroke="none">
<path d="M0 640 l0 -640 640 0 640 0 0 640 0 640 -640 0 -640 0 0 -640z m932
405 c-5 -29 -5 -29 -21 3 -10 19 -9 22 7 22 15 0 18 -5 14 -25z m-417 -46 c11
-17 -1 -21 -15 -4 -8 9 -8 15 -2 15 6 0 14 -5 17 -11z m-155 -164 c0 -14 5
-25 10 -25 6 0 10 -25 10 -55 l0 -55 34 0 c42 0 66 22 66 59 0 16 3 43 6 60 6
28 10 31 44 31 51 0 70 -8 70 -30 0 -10 5 -20 11 -22 9 -3 8 -57 -1 -208 -6
-113 -14 -207 -16 -209 -2 -2 -5 20 -5 50 -2 52 -2 52 -8 14 -4 -29 -11 -41
-26 -43 -42 -7 -51 -14 -25 -22 23 -7 23 -8 3 -9 -12 -1 -26 5 -30 13 -4 7
-14 15 -22 17 -10 4 -14 25 -15 74 l-1 70 -47 3 -47 3 -5 -43 c-3 -24 -7 -61
-8 -83 -3 -39 -4 -40 -41 -43 -29 -3 -43 2 -65 23 l-27 25 12 203 c6 111 12
208 12 215 1 8 19 12 56 12 52 0 55 -1 55 -25z m623 -11 c52 -5 57 -8 57 -30
0 -13 6 -24 13 -25 10 0 10 -2 0 -6 -7 -2 -13 -16 -13 -29 0 -22 -4 -24 -49
-24 -69 0 -77 -20 -9 -22 l53 -2 -47 -3 -48 -4 -1 -77 c-2 -140 -13 -245 -27
-248 -7 -1 -8 0 -2 3 6 3 9 39 8 86 -1 45 -3 64 -5 42 -8 -96 -12 -105 -43
-105 -38 0 -39 -17 -2 -23 25 -4 25 -4 -5 -6 -23 -1 -33 4 -33 13 0 8 -8 16
-17 18 -16 3 -18 17 -14 156 l3 152 -27 0 c-44 0 -75 37 -75 91 0 25 3 49 7
53 8 7 161 2 276 -10z m-223 -300 c0 -8 -4 -12 -10 -9 -5 3 -10 13 -10 21 0 8
5 12 10 9 6 -3 10 -13 10 -21z"/>
<path d="M361 784 c0 -11 3 -14 6 -6 3 7 2 16 -1 19 -3 4 -6 -2 -5 -13z"/>
<path d="M603 735 c0 -33 2 -45 4 -27 2 18 2 45 0 60 -2 15 -4 0 -4 -33z"/>
<path d="M593 565 c0 -22 2 -30 4 -17 2 12 2 30 0 40 -3 9 -5 -1 -4 -23z"/>
<path d="M398 563 c12 -2 32 -2 45 0 12 2 2 4 -23 4 -25 0 -35 -2 -22 -4z"/>
<path d="M340 488 c0 -60 -10 -78 -41 -78 -16 0 -29 -4 -29 -10 0 -5 18 -10
40 -10 l40 0 0 65 c0 36 -2 65 -5 65 -3 0 -5 -15 -5 -32z"/>
<path d="M758 713 c6 -2 18 -2 25 0 6 3 1 5 -13 5 -14 0 -19 -2 -12 -5z"/>
<path d="M923 600 c0 -36 2 -50 4 -32 2 17 2 47 0 65 -2 17 -4 3 -4 -33z"/>
</g>
</svg>
